<svg width="3938" height="2475" xmlns="http://www.w3.org/2000/svg" xmlns:xlink="http://www.w3.org/1999/xlink" overflow="hidden"><defs><clipPath id="clip0"><rect x="231" y="0" width="3938" height="2475"/></clipPath><clipPath id="clip1"><rect x="1326" y="257" width="1748" height="1961"/></clipPath><clipPath id="clip2"><rect x="1326" y="257" width="1748" height="1961"/></clipPath><clipPath id="clip3"><rect x="1326" y="257" width="1748" height="1961"/></clipPath></defs><g clip-path="url(#clip0)" transform="translate(-231 0)"><path d="M590.306 824.764 401.676 824.764 401.676 1409.06 324.614 1409.06 324.614 824.764 137.134 824.764 137.134 755.754 590.306 755.754 590.306 824.764ZM945.713 942.083 730.628 1483.82C692.672 1580.44 638.614 1628.75 569.603 1628.75 550.05 1628.75 533.948 1626.45 521.295 1623L521.295 1556.28C537.398 1562.03 552.35 1564.33 565.002 1564.33 602.958 1564.33 630.562 1541.33 650.116 1496.47L686.921 1407.91 505.193 942.083 588.006 942.083 714.526 1300.94C715.676 1305.54 719.126 1317.04 723.728 1336.6L726.028 1336.6C727.178 1329.7 730.628 1318.19 735.229 1302.09L867.501 942.083 945.713 942.083 945.713 942.083ZM1067.63 1341.2 1065.33 1341.2 1065.33 1623 990.571 1623 990.571 942.083 1065.33 942.083 1065.33 1023.75 1067.63 1023.75C1104.44 961.637 1158.5 930.581 1228.66 930.581 1288.47 930.581 1335.63 951.286 1368.98 992.691 1402.34 1034.1 1419.59 1090.46 1419.59 1160.62 1419.59 1238.83 1400.03 1300.94 1362.08 1348.1 1324.12 1395.26 1272.36 1418.26 1206.8 1418.26 1148.15 1420.56 1100.99 1394.11 1067.63 1341.2L1067.63 1341.2ZM1066.48 1153.72 1066.48 1219.28C1066.48 1258.38 1079.13 1290.59 1104.44 1317.04 1129.74 1343.5 1160.8 1357.3 1199.9 1357.3 1244.76 1357.3 1280.42 1340.05 1306.87 1305.54 1332.18 1271.04 1344.83 1222.73 1344.83 1160.62 1344.83 1108.86 1333.32 1067.45 1309.17 1038.7 1285.02 1008.79 1252.81 994.992 1211.41 994.992 1167.7 994.992 1133.19 1009.94 1106.74 1039.85 1079.13 1069.75 1066.48 1107.71 1066.48 1153.72L1066.48 1153.72ZM1877.36 1193.97 1548.41 1193.97C1549.56 1245.73 1563.36 1285.99 1589.82 1314.74 1616.27 1343.5 1653.08 1357.3 1700.23 1357.3 1753.14 1357.3 1801.45 1340.05 1845.15 1305.54L1845.15 1375.7C1803.76 1405.61 1749.69 1420.56 1682.98 1420.56 1617.42 1420.56 1565.66 1399.86 1527.71 1357.3 1489.75 1314.74 1471.35 1254.93 1471.35 1179.02 1471.35 1106.56 1492.05 1046.75 1533.46 1001.89 1574.86 955.886 1625.47 932.882 1686.43 932.882 1747.39 932.882 1794.56 952.436 1827.91 992.691 1861.27 1031.8 1878.51 1087.01 1878.51 1157.17L1877.36 1193.97 1877.36 1193.97ZM1800.29 1130.71C1800.29 1087.01 1789.95 1053.65 1769.24 1029.5 1748.54 1005.34 1719.79 993.842 1684.13 993.842 1648.47 993.842 1618.58 1006.49 1594.42 1031.8 1570.27 1057.1 1554.16 1090.46 1548.41 1130.71L1800.29 1130.71ZM1914.17 1386.05 1914.17 1334.3C1961.33 1364.2 2008.48 1379.15 2056.79 1379.15 2107.4 1379.15 2146.51 1368.8 2172.95 1346.95 2199.41 1325.1 2212.06 1296.34 2212.06 1258.38 2212.06 1225.03 2202.86 1198.57 2185.62 1177.87 2168.36 1158.32 2129.25 1130.71 2070.6 1096.21 2003.89 1057.1 1962.48 1024.9 1945.22 999.593 1927.98 973.139 1918.78 943.234 1918.78 909.878 1918.78 863.871 1937.18 824.764 1972.82 792.56 2008.48 760.355 2056.79 744.252 2116.6 744.252 2155.71 744.252 2194.82 751.154 2232.77 763.805L2232.77 810.963C2194.82 793.71 2153.41 784.509 2109.71 784.509 2064.85 784.509 2030.33 796.011 2003.89 817.865 1977.43 840.867 1964.78 868.473 1964.78 902.977 1964.78 936.332 1973.98 962.788 1991.22 982.34 2008.48 1001.89 2047.59 1029.5 2106.24 1062.85 2167.2 1097.36 2207.47 1128.41 2228.17 1154.87 2248.86 1181.32 2258.07 1212.38 2258.07 1248.03 2258.07 1298.64 2240.82 1338.9 2206.31 1371.1 2171.81 1403.31 2122.36 1418.26 2059.09 1418.26 2036.08 1418.26 2010.78 1414.81 1980.88 1407.91 1950.97 1401.01 1929.12 1395.26 1914.17 1386.05L1914.17 1386.05ZM2646.84 1388.35C2612.32 1409.06 2570.93 1420.56 2522.62 1420.56 2459.36 1420.56 2407.6 1398.71 2368.49 1355 2329.38 1311.29 2309.84 1254.93 2309.84 1183.62 2309.84 1110.01 2331.69 1049.05 2375.39 1001.89 2419.1 954.736 2475.45 930.581 2544.47 930.581 2580.13 930.581 2614.63 937.483 2647.98 952.435L2647.98 999.593C2614.63 978.89 2577.82 968.539 2538.72 968.539 2483.51 968.539 2439.8 988.091 2405.3 1027.2 2370.8 1066.3 2354.68 1118.06 2354.68 1180.17 2354.68 1241.13 2370.8 1289.44 2401.85 1326.24 2432.9 1363.05 2474.31 1381.45 2524.91 1381.45 2572.07 1381.45 2612.32 1368.8 2646.84 1344.65L2646.84 1388.35 2646.84 1388.35ZM2925.19 985.791C2911.38 975.438 2895.28 970.838 2875.72 970.838 2838.91 970.838 2807.86 990.392 2783.71 1028.35 2758.39 1066.3 2746.91 1120.36 2746.91 1190.52L2746.91 1410.21 2705.49 1410.21 2705.49 942.083 2746.91 942.083 2746.91 1045.6 2749.19 1045.6C2759.55 1009.94 2776.81 982.34 2799.81 962.788 2822.82 943.234 2849.26 932.882 2880.33 932.882 2897.57 932.882 2913.68 935.183 2926.33 940.934L2926.33 985.791 2925.19 985.791 2925.19 985.791ZM2991.9 824.764C2982.68 824.764 2974.64 821.314 2967.74 814.413 2960.83 807.512 2957.38 799.461 2957.38 789.11 2957.38 778.758 2960.83 770.706 2967.74 764.955 2974.64 759.204 2982.68 755.754 2991.9 755.754 3001.1 755.754 3009.14 759.204 3017.2 764.955 3024.09 770.706 3027.54 778.758 3027.54 789.11 3027.54 798.311 3024.09 807.512 3017.2 814.413 3009.14 821.314 3001.1 824.764 2991.9 824.764ZM2971.19 1409.06 2971.19 942.083 3012.59 942.083 3012.59 1409.06 2971.19 1409.06ZM3156.37 1326.24 3154.07 1326.24 3154.07 1624.14 3112.65 1624.14 3112.65 942.083 3154.07 942.083 3154.07 1038.7 3156.37 1038.7C3173.61 1004.19 3196.62 977.739 3227.67 959.336 3258.74 940.934 3293.24 931.732 3330.04 931.732 3389.86 931.732 3435.86 952.435 3469.22 992.691 3502.57 1034.1 3518.67 1089.31 3518.67 1159.47 3518.67 1237.68 3499.12 1300.94 3461.16 1349.25 3423.21 1397.56 3372.6 1421.71 3310.5 1421.71 3241.48 1420.56 3189.72 1389.5 3156.37 1326.24ZM3154.07 1152.57 3154.07 1211.23C3154.07 1258.38 3169.02 1298.64 3197.77 1332 3227.67 1365.35 3265.64 1382.6 3313.95 1382.6 3361.09 1382.6 3400.2 1361.9 3430.11 1321.64 3460.02 1280.24 3474.97 1227.33 3474.97 1160.62 3474.97 1101.96 3461.16 1055.95 3433.56 1021.45 3405.95 986.94 3370.29 969.687 3324.29 969.687 3270.23 969.687 3227.67 988.091 3197.77 1024.9 3167.87 1061.7 3154.07 1103.11 3154.07 1152.57ZM3772.86 1402.16C3751.01 1412.51 3730.31 1417.11 3711.9 1417.11 3642.89 1417.11 3608.39 1375.7 3608.39 1292.89L3608.39 981.189 3524.42 981.189 3524.42 943.234 3608.39 943.234 3608.39 821.314 3629.1 814.413 3649.8 807.512 3649.8 943.234 3772.86 943.234 3772.86 981.189 3649.8 981.189 3649.8 1289.44C3649.8 1321.64 3654.39 1344.65 3664.74 1359.6 3675.1 1374.55 3692.36 1381.45 3716.51 1381.45 3733.75 1381.45 3752.16 1375.7 3772.86 1364.2L3772.86 1402.16 3772.86 1402.16Z" fill="#007ACC" transform="matrix(1.00015 0 0 1 231 0)"/><rect x="333" y="619" width="3747" height="1076" fill="#FFFFFF"/><g clip-path="url(#clip1)"><g clip-path="url(#clip2)"><g clip-path="url(#clip3)"><path d="M1743.63 575.978C1743.63 543.431 1736.65 513.789 1722.12 488.797 1708.17 463.805 1687.25 443.463 1659.35 427.77 1427.45 294.092 1194.97 160.414 962.482 26.7356 899.712-9.29935 839.266-8.13693 777.077 28.4792 684.664 82.5317 221.441 348.144 84.2753 428.351 27.3168 460.318 0 510.883 0 576.56L0 1384.44C0 1416.41 6.97451 1444.89 20.3423 1469.88 34.2913 1494.87 55.7961 1516.37 84.2753 1533.23 222.603 1613.44 684.664 1877.89 777.077 1933.1 839.266 1969.72 900.293 1971.46 962.482 1934.85 1194.38 1800.59 1426.87 1667.49 1659.35 1533.81 1688.41 1516.96 1709.34 1496.03 1723.29 1470.46 1736.65 1445.47 1743.63 1417.57 1743.63 1385.02L1743.63 575.978Z" fill="#9A4993" transform="matrix(1.00017 0 0 1 1328.03 257)"/><path d="M874.139 977.013 19.7611 1469.3C33.7101 1494.29 55.2149 1515.79 83.6941 1532.65 222.022 1612.86 684.083 1877.31 776.495 1932.52 838.685 1969.14 899.712 1970.88 961.901 1934.26 1193.8 1800 1426.29 1666.91 1658.77 1533.23 1687.83 1516.37 1708.76 1495.45 1722.7 1469.88L874.139 977.013Z" fill="#6A1577" transform="matrix(1.00017 0 0 1 1328.03 257)"/><path d="M620.731 1122.9C670.715 1210.08 764.29 1268.2 871.233 1268.2 979.337 1268.2 1073.49 1208.92 1122.9 1121.15L874.139 977.013 620.731 1122.9Z" fill="#6A1577" transform="matrix(1.00017 0 0 1 1328.03 257)"/><path d="M1743.63 575.978C1743.63 543.431 1736.65 513.789 1722.12 488.797L874.139 977.013 1723.29 1469.3C1736.65 1444.3 1743.63 1416.41 1743.63 1383.86L1743.63 575.978Z" fill="#813084" transform="matrix(1.00017 0 0 1 1328.03 257)"/><path d="M1122.9 1121.15C1073.49 1208.92 979.337 1268.2 871.233 1268.2 763.709 1268.2 670.134 1209.5 620.731 1122.9 596.321 1080.47 582.372 1032.23 582.372 979.919 582.372 820.667 711.4 691.639 870.651 691.639 977.013 691.639 1070.01 749.76 1119.99 835.779L1371.65 690.477C1272.27 517.276 1085.12 401.034 870.651 401.034 550.405 401.034 291.767 660.254 291.767 979.919 291.767 1084.54 319.665 1183.34 368.487 1268.2 468.455 1441.98 656.185 1558.8 871.233 1558.8 1086.86 1558.8 1274.59 1441.4 1374.56 1266.45L1122.9 1121.15ZM1441.4 842.753 1383.86 842.753 1383.86 1120.57 1441.4 1120.57 1441.4 842.753ZM1568.68 842.753 1511.14 842.753 1511.14 1120.57 1568.68 1120.57 1568.68 842.753Z" fill="#FFFFFF" transform="matrix(1.00017 0 0 1 1328.03 257)"/><path d="M1615.18 889.831 1337.36 889.831 1337.36 947.371 1615.18 947.371 1615.18 889.831ZM1615.18 1016.53 1337.36 1016.53 1337.36 1074.07 1615.18 1074.07 1615.18 1016.53Z" fill="#FFFFFF" transform="matrix(1.00017 0 0 1 1328.03 257)"/></g></g></g></g></svg>